# xmcd
#
# Track frame offsets:
#	150
#	12535
#	35345
#	45720
#	58472
#	70292
#	85000
#	95512
#	108600
#	119522
#	133140
#	145627
#	156612
#	166890
#	180912
#	194242
#	206215
#	220047
#
# Disc length: 3150
#
# Revision: 1
# Processed by: cddbd v1.5.1PL0 Copyright (c) Steve Scherf et al.
# Submitted via: audiograbber 1.80.04
# Normalized: r0:DSETVAR1
#
DISCID=160c4c12
DTITLE=Various Artist - Blues and Soul Legends CD 4
DYEAR=1996
DGENRE=Blues
TTITLE0=John Lee Hooker - I'm In The Mood
TTITLE1=Muddy Waters - Who's Gonna Be Yor Sweet Man
TTITLE2=Buddy Guy - First Time I Met The Blues
TTITLE3=Tommy Tucker - High Heel Sneakers
TTITLE4=Sam and Dave - Hold On I'm Coming
TTITLE5=Al Green - Let's Stay Together
TTITLE6=Jerry Butler - I'm A Telling You
TTITLE7=Mary Wells - My Guy
TTITLE8=Howlin' Wolf - Little Red Rooster
TTITLE9=Koko Taylor - Wang Dang Doodle
TTITLE10=Etta James - Spoonful
TTITLE11=The Capitols - Cool Jerk
TTITLE12=Brenton Wood - Gimme A Little Sign
TTITLE13=Sonny Boy Williams - Help Me
TTITLE14=Little Walter - Key To The Highway
TTITLE15=Jimmy Witherspoon - Ain't Nobody's Business
TTITLE16=Jimmy Ruffin - What Becomes Of The Broken Hearted
TTITLE17=Harold Melvin - If You Don't Know Me By Now
EXTD=
EXTT0=
EXTT1=
EXTT2=
EXTT3=
EXTT4=
EXTT5=
EXTT6=
EXTT7=
EXTT8=
EXTT9=
EXTT10=
EXTT11=
EXTT12=
EXTT13=
EXTT14=
EXTT15=
EXTT16=
EXTT17=
PLAYORDER=
